{
  "accessors": [
    {
      "bufferView": 2,
      "componentType": 5126,
      "count": 12708,
      "max": [
        0.1561720073223114,
        0.04634200036525726,
        0.23553399741649628
      ],
      "min": [
        0.0638279989361763,
        -0.04638100042939186,
        -4.999999873689376e-06
      ],
      "type": "VEC3"
    },
    {
      "bufferView": 2,
      "byteOffset": 152496,
      "componentType": 5126,
      "count": 12708,
      "max": [
        1.0,
        1.0,
        1.0
      ],
      "min": [
        -1.0,
        -1.0,
        -1.0
      ],
      "type": "VEC3"
    },
    {
      "bufferView": 3,
      "componentType": 5126,
      "count": 12708,
      "max": [
        0.9999998211860657,
        1.0,
        1.0,
        1.0
      ],
      "min": [
        -0.9999999403953552,
        -1.0,
        -1.0,
        -1.0
      ],
      "type": "VEC4"
    },
    {
      "bufferView": 1,
      "componentType": 5126,
      "count": 12708,
      "max": [
        0.99310702085495,
        0.9893249869346619
      ],
      "min": [
        0.010320999659597874,
        0.011846000328660011
      ],
      "type": "VEC2"
    },
    {
      "bufferView": 0,
      "componentType": 5125,
      "count": 66894,
      "type": "SCALAR"
    },
    {
      "bufferView": 2,
      "byteOffset": 304992,
      "componentType": 5126,
      "count": 12708,
      "max": [
        -0.0638279989361763,
        0.04634200036525726,
        0.23553399741649628
      ],
      "min": [
        -0.1561720073223114,
        -0.04638100042939186,
        -4.999999873689376e-06
      ],
      "type": "VEC3"
    },
    {
      "bufferView": 2,
      "byteOffset": 457488,
      "componentType": 5126,
      "count": 12708,
      "max": [
        1.0,
        1.0,
        1.0
      ],
      "min": [
        -1.0,
        -1.0,
        -1.0
      ],
      "type": "VEC3"
    },
    {
      "bufferView": 1,
      "byteOffset": 101664,
      "componentType": 5126,
      "count": 12708,
      "max": [
        0.99310702085495,
        0.9893249869346619
      ],
      "min": [
        0.010320999659597874,
        0.011846000328660011
      ],
      "type": "VEC2"
    },
    {
      "bufferView": 0,
      "byteOffset": 267576,
      "componentType": 5125,
      "count": 66894,
      "type": "SCALAR"
    },
    {
      "bufferView": 2,
      "byteOffset": 609984,
      "componentType": 5126,
      "count": 12708,
      "max": [
        0.04617200046777725,
        0.04634200036525726,
        0.23553399741649628
      ],
      "min": [
        -0.04617200046777725,
        -0.04638100042939186,
        -4.999999873689376e-06
      ],
      "type": "VEC3"
    },
    {
      "bufferView": 2,
      "byteOffset": 762480,
      "componentType": 5126,
      "count": 12708,
      "max": [
        1.0,
        1.0,
        1.0
      ],
      "min": [
        -1.0,
        -1.0,
        -1.0
      ],
      "type": "VEC3"
    },
    {
      "bufferView": 3,
      "byteOffset": 203328,
      "componentType": 5126,
      "count": 12708,
      "max": [
        0.9999998211860657,
        1.0,
        1.0,
        1.0
      ],
      "min": [
        -0.9999998807907104,
        -1.0,
        -1.0,
        -1.0
      ],
      "type": "VEC4"
    },
    {
      "bufferView": 1,
      "byteOffset": 203328,
      "componentType": 5126,
      "count": 12708,
      "max": [
        0.99310702085495,
        0.9893249869346619
      ],
      "min": [
        0.010320999659597874,
        0.011846000328660011
      ],
      "type": "VEC2"
    },
    {
      "bufferView": 0,
      "byteOffset": 535152,
      "componentType": 5125,
      "count": 66894,
      "type": "SCALAR"
    }
  ],
  "asset": {
    "extras": {
      "author": "Safat_Rules (https://sketchfab.com/Safat_Rules)",
      "license": "CC-BY-4.0 (http://creativecommons.org/licenses/by/4.0/)",
      "source": "https://sketchfab.com/3d-models/cans-red-bull-69631f64019a4de0a0bfed12f34decf5",
      "title": "Cans Red Bull"
    },
    "generator": "Sketchfab-16.95.0",
    "version": "2.0"
  },
  "bufferViews": [
    {
      "buffer": 0,
      "byteLength": 802728,
      "name": "floatBufferViews",
      "target": 34963
    },
    {
      "buffer": 0,
      "byteLength": 304992,
      "byteOffset": 802728,
      "byteStride": 8,
      "name": "floatBufferViews",
      "target": 34962
    },
    {
      "buffer": 0,
      "byteLength": 914976,
      "byteOffset": 1107720,
      "byteStride": 12,
      "name": "floatBufferViews",
      "target": 34962
    },
    {
      "buffer": 0,
      "byteLength": 406656,
      "byteOffset": 2022696,
      "byteStride": 16,
      "name": "floatBufferViews",
      "target": 34962
    }
  ],
  "buffers": [
    {
      "byteLength": 2429352,
      "uri": "scene.bin"
    }
  ],
  "extensionsUsed": [
    "KHR_materials_clearcoat"
  ],
  "images": [
    {
      "uri": "textures/Cold__wet_baseColor.png"
    },
    {
      "uri": "textures/Cold__wet_metallicRoughness.png"
    },
    {
      "uri": "textures/Cold__wet_normal.png"
    },
    {
      "uri": "textures/Normal_baseColor.png"
    },
    {
      "uri": "textures/material_baseColor.png"
    },
    {
      "uri": "textures/material_metallicRoughness.png"
    },
    {
      "uri": "textures/material_normal.png"
    }
  ],
  "materials": [
    {
      "doubleSided": true,
      "extensions": {
        "KHR_materials_clearcoat": {
          "clearcoatFactor": 0.2,
          "clearcoatRoughnessFactor": 0.04
        }
      },
      "name": "Cold__wet",
      "normalTexture": {
        "index": 2
      },
      "pbrMetallicRoughness": {
        "baseColorTexture": {
          "index": 0
        },
        "metallicRoughnessTexture": {
          "index": 1
        },
        "roughnessFactor": 0.2
      }
    },
    {
      "doubleSided": true,
      "extensions": {
        "KHR_materials_clearcoat": {
          "clearcoatFactor": 0.2,
          "clearcoatRoughnessFactor": 0.04
        }
      },
      "name": "Normal",
      "pbrMetallicRoughness": {
        "baseColorTexture": {
          "index": 3
        },
        "roughnessFactor": 0.2
      }
    },
    {
      "doubleSided": true,
      "extensions": {
        "KHR_materials_clearcoat": {
          "clearcoatFactor": 0.25,
          "clearcoatRoughnessFactor": 0.2
        }
      },
      "name": "material",
      "normalTexture": {
        "index": 6
      },
      "pbrMetallicRoughness": {
        "baseColorTexture": {
          "index": 4
        },
        "metallicRoughnessTexture": {
          "index": 5
        },
        "roughnessFactor": 0.2
      }
    }
  ],
  "meshes": [
    {
      "name": "Object_0",
      "primitives": [
        {
          "attributes": {
            "NORMAL": 1,
            "POSITION": 0,
            "TANGENT": 2,
            "TEXCOORD_0": 3
          },
          "indices": 4,
          "material": 0,
          "mode": 4
        }
      ]
    },
    {
      "name": "Object_1",
      "primitives": [
        {
          "attributes": {
            "NORMAL": 6,
            "POSITION": 5,
            "TEXCOORD_0": 7
          },
          "indices": 8,
          "material": 1,
          "mode": 4
        }
      ]
    },
    {
      "name": "Object_2",
      "primitives": [
        {
          "attributes": {
            "NORMAL": 10,
            "POSITION": 9,
            "TANGENT": 11,
            "TEXCOORD_0": 12
          },
          "indices": 13,
          "material": 2,
          "mode": 4
        }
      ]
    }
  ],
  "nodes": [
    {
      "children": [
        1
      ],
      "matrix": [
        1.0,
        0.0,
        0.0,
        0.0,
        0.0,
        2.220446049250313e-16,
        -1.0,
        0.0,
        0.0,
        1.0,
        2.220446049250313e-16,
        0.0,
        0.0,
        0.0,
        0.0,
        1.0
      ],
      "name": "Sketchfab_model"
    },
    {
      "children": [
        2,
        3,
        4
      ],
      "name": "Cans Red Bull.obj.cleaner.materialmerger.gles"
    },
    {
      "mesh": 0,
      "name": "Object_2"
    },
    {
      "mesh": 1,
      "name": "Object_3"
    },
    {
      "mesh": 2,
      "name": "Object_4"
    }
  ],
  "samplers": [
    {
      "magFilter": 9729,
      "minFilter": 9987,
      "wrapS": 10497,
      "wrapT": 10497
    }
  ],
  "scene": 0,
  "scenes": [
    {
      "name": "Sketchfab_Scene",
      "nodes": [
        0
      ]
    }
  ],
  "textures": [
    {
      "sampler": 0,
      "source": 0
    },
    {
      "sampler": 0,
      "source": 1
    },
    {
      "sampler": 0,
      "source": 2
    },
    {
      "sampler": 0,
      "source": 3
    },
    {
      "sampler": 0,
      "source": 4
    },
    {
      "sampler": 0,
      "source": 5
    },
    {
      "sampler": 0,
      "source": 6
    }
  ]
}
